<svg width="18" height="18" viewBox="0 0 18 18" fill="none" xmlns="http://www.w3.org/2000/svg">
<path fill-rule="evenodd" clip-rule="evenodd" d="M0 5.04C0 4.24471 0.619913 3.6 1.38462 3.6H16.6154C17.3801 3.6 18 4.24471 18 5.04V16.56C18 17.3553 17.3801 18 16.6154 18H1.38462C0.619913 18 0 17.3553 0 16.56V5.04ZM16.6154 5.04H1.38462V16.56H16.6154V5.04Z" fill="#087065"/>
<path fill-rule="evenodd" clip-rule="evenodd" d="M9 1.44C8.26556 1.44 7.56119 1.74343 7.04186 2.28353C6.52253 2.82364 6.23077 3.55618 6.23077 4.32V7.2C6.23077 7.59765 5.92081 7.92 5.53846 7.92C5.15611 7.92 4.84615 7.59765 4.84615 7.2V4.32C4.84615 3.17426 5.28379 2.07546 6.06279 1.2653C6.84178 0.455142 7.89833 0 9 0C10.1017 0 11.1582 0.455142 11.9372 1.2653C12.7162 2.07546 13.1538 3.17426 13.1538 4.32V7.2C13.1538 7.59765 12.8439 7.92 12.4615 7.92C12.0792 7.92 11.7692 7.59765 11.7692 7.2V4.32C11.7692 3.55618 11.4775 2.82364 10.9581 2.28353C10.4388 1.74343 9.73445 1.44 9 1.44Z" fill="#087065"/>
</svg>
