<svg width="33" height="31" viewBox="0 0 33 31" fill="none" xmlns="http://www.w3.org/2000/svg">
<path fill-rule="evenodd" clip-rule="evenodd" d="M0.743498 0.754843C1.21955 0.271526 1.86522 0 2.53846 0H30.4615C31.1348 0 31.7804 0.271525 32.2565 0.754843C32.7326 1.23816 33 1.89368 33 2.57719V23.1947C33 23.8783 32.7326 24.5338 32.2565 25.0171C31.7804 25.5004 31.1348 25.7719 30.4615 25.7719H21.0284L21.0315 25.7739L18.676 29.7651C18.4474 30.1425 18.1273 30.4541 17.7464 30.6703C17.3655 30.8865 16.9364 31 16.5 31C16.0636 31 15.6345 30.8865 15.2536 30.6703C14.8727 30.4541 14.5527 30.1424 14.3241 29.765L14.3165 29.7524L11.9673 25.7719H2.53846C1.86522 25.7719 1.21955 25.5004 0.743498 25.0171C0.267444 24.5338 0 23.8783 0 23.1947V2.57719C0 1.89368 0.267445 1.23816 0.743498 0.754843ZM21.0284 25.7719L21.0315 25.7698C21.0339 25.7684 21.0359 25.7664 21.0373 25.764L21.0236 25.7558L21.0236 25.7691L21.0284 25.7719ZM21.0216 25.7678V25.7547L19.9428 25.1115L21.0216 25.7678ZM18.8516 24.4533C19.0737 24.0715 19.3897 23.7548 19.7686 23.5342C20.1494 23.3125 20.5806 23.1955 21.0196 23.1947L21.0216 23.1947L30.4615 23.1947V2.57719L2.53846 2.57719L2.53846 23.1947H11.9804C12.4194 23.1955 12.8506 23.3125 13.2314 23.5342C13.6103 23.7548 13.9263 24.0715 14.1484 24.4533L16.4873 28.4164L16.4923 28.4208L16.4942 28.4217L16.5 28.4228C16.5027 28.4228 16.5054 28.4221 16.5077 28.4208L16.5127 28.4164L18.8516 24.4533Z" fill="white"/>
<path d="M16.5 14.8189C17.5515 14.8189 18.4038 13.9535 18.4038 12.886C18.4038 11.8185 17.5515 10.9531 16.5 10.9531C15.4485 10.9531 14.5962 11.8185 14.5962 12.886C14.5962 13.9535 15.4485 14.8189 16.5 14.8189Z" fill="white"/>
<path d="M8.88461 14.8189C9.93608 14.8189 10.7885 13.9535 10.7885 12.886C10.7885 11.8185 9.93608 10.9531 8.88461 10.9531C7.83315 10.9531 6.98077 11.8185 6.98077 12.886C6.98077 13.9535 7.83315 14.8189 8.88461 14.8189Z" fill="white"/>
<path d="M24.1154 14.8189C25.1668 14.8189 26.0192 13.9535 26.0192 12.886C26.0192 11.8185 25.1668 10.9531 24.1154 10.9531C23.0639 10.9531 22.2115 11.8185 22.2115 12.886C22.2115 13.9535 23.0639 14.8189 24.1154 14.8189Z" fill="white"/>
</svg>
