<svg width="18" height="18" viewBox="0 0 18 18" fill="none" xmlns="http://www.w3.org/2000/svg">
<path fill-rule="evenodd" clip-rule="evenodd" d="M0.485281 17.4853C0.0947566 17.0948 0.0947569 16.4616 0.485281 16.0711L16.0416 0.514719C16.4322 0.124195 17.0653 0.124194 17.4558 0.514719C17.8464 0.905243 17.8464 1.53841 17.4558 1.92893L1.89949 17.4853C1.50897 17.8758 0.875806 17.8758 0.485281 17.4853Z" fill="#AAAAAA"/>
<path fill-rule="evenodd" clip-rule="evenodd" d="M0.485281 0.514719C0.875806 0.124194 1.50897 0.124194 1.89949 0.514719L17.4558 16.0711C17.8464 16.4616 17.8464 17.0948 17.4558 17.4853C17.0653 17.8758 16.4322 17.8758 16.0416 17.4853L0.485281 1.92893C0.0947569 1.53841 0.0947566 0.905243 0.485281 0.514719Z" fill="#AAAAAA"/>
</svg>
