<svg width="18" height="19" viewBox="0 0 18 19" fill="none" xmlns="http://www.w3.org/2000/svg">
<path fill-rule="evenodd" clip-rule="evenodd" d="M13.3086 6.84782C13.5725 7.13764 13.5622 7.59673 13.2856 7.87323L8.20577 12.9501C7.93811 13.2176 7.51701 13.2175 7.24958 12.9497L4.714 10.4113C4.43758 10.1345 4.42763 9.67542 4.6918 9.38583C4.95596 9.09624 5.39419 9.08583 5.67062 9.36257L7.72829 11.4226L12.3298 6.82368C12.6065 6.54718 13.0447 6.55799 13.3086 6.84782Z" fill="white"/>
<path fill-rule="evenodd" clip-rule="evenodd" d="M9 1.54625C4.79414 1.54625 1.38462 5.11813 1.38462 9.52427C1.38462 13.9304 4.79414 17.5023 9 17.5023C13.2059 17.5023 16.6154 13.9304 16.6154 9.52427C16.6154 5.11813 13.2059 1.54625 9 1.54625ZM0 9.52427C0 4.31702 4.02944 0.0957031 9 0.0957031C13.9706 0.0957031 18 4.31702 18 9.52427C18 14.7315 13.9706 18.9528 9 18.9528C4.02944 18.9528 0 14.7315 0 9.52427Z" fill="white"/>
</svg>
