<svg width="13" height="13" viewBox="0 0 13 13" fill="none" xmlns="http://www.w3.org/2000/svg">
<path d="M6.5 0C2.915 0 0 2.915 0 6.5C0 10.085 2.915 13 6.5 13C10.085 13 13 10.085 13 6.5C13 2.915 10.085 0 6.5 0ZM7 11.975V8H8.5C8.775 8 9 7.775 9 7.5C9 7.225 8.775 7 8.5 7H7V5.49C7 5.225 7.105 4.975 7.295 4.79C7.48 4.605 7.73 4.5 7.995 4.5H9C9.275 4.5 9.5 4.275 9.5 4C9.5 3.725 9.275 3.5 9 3.5H7.995C7.465 3.5 6.965 3.705 6.59 4.08C6.21 4.455 6 4.955 6 5.485V7H4.5C4.225 7 4 7.225 4 7.5C4 7.775 4.225 8 4.5 8H6V11.975C3.2 11.72 1 9.36 1 6.5C1 3.465 3.465 1 6.5 1C9.535 1 12 3.465 12 6.5C12 9.365 9.8 11.725 7 11.975Z" fill="white"/>
</svg>
