<svg width="20" height="17" viewBox="0 0 20 17" fill="none" xmlns="http://www.w3.org/2000/svg">
<path d="M10 17C9.875 17 9.75093 16.9699 9.63796 16.9097C9.24444 16.699 0 11.6751 0 5.31252C0 2.38356 2.49259 2.49326e-05 5.55556 2.49326e-05C7.33611 2.49326e-05 8.96852 0.803982 10.0009 2.12325C11.4889 0.226691 14.1898 -0.544506 16.5815 0.409087C18.6583 1.23695 20 3.16184 20 5.31252C20 11.6751 10.7556 16.699 10.362 16.9097C10.25 16.9699 10.125 17 10 17ZM5.55556 1.41669C3.30926 1.41669 1.48148 3.1645 1.48148 5.31252C1.48148 10.1965 8.33148 14.4943 10 15.4682C11.6685 14.4943 18.5185 10.1965 18.5185 5.31252C18.5185 3.73471 17.5343 2.32335 16.0111 1.71596C15.0065 1.31575 13.8991 1.3131 12.8926 1.70976C11.8861 2.10643 11.1019 2.85283 10.6833 3.81351C10.5685 4.07736 10.2981 4.24913 10 4.24913C9.70185 4.24913 9.43148 4.07736 9.31667 3.81351C8.68241 2.357 7.20556 1.4158 5.55556 1.4158V1.41669Z" fill="black"/>
</svg>
