<svg width="13" height="13" viewBox="0 0 13 13" fill="none" xmlns="http://www.w3.org/2000/svg">
<path fill-rule="evenodd" clip-rule="evenodd" d="M6.5 4.42C5.35125 4.42 4.42 5.35125 4.42 6.5C4.42 7.64875 5.35125 8.58 6.5 8.58C7.64875 8.58 8.58 7.64875 8.58 6.5C8.58 5.35125 7.64875 4.42 6.5 4.42ZM3.38 6.5C3.38 4.77687 4.77687 3.38 6.5 3.38C8.22313 3.38 9.62 4.77687 9.62 6.5C9.62 8.22313 8.22313 9.62 6.5 9.62C4.77687 9.62 3.38 8.22313 3.38 6.5Z" fill="white"/>
<path fill-rule="evenodd" clip-rule="evenodd" d="M3.64 1.04C2.20406 1.04 1.04 2.20406 1.04 3.64V9.36C1.04 10.7959 2.20406 11.96 3.64 11.96H9.36C10.7959 11.96 11.96 10.7959 11.96 9.36V3.64C11.96 2.20406 10.7959 1.04 9.36 1.04H3.64ZM0 3.64C0 1.62968 1.62968 0 3.64 0H9.36C11.3703 0 13 1.62968 13 3.64V9.36C13 11.3703 11.3703 13 9.36 13H3.64C1.62968 13 0 11.3703 0 9.36V3.64Z" fill="white"/>
<path d="M9.88 3.9C10.3108 3.9 10.66 3.55078 10.66 3.12C10.66 2.68922 10.3108 2.34 9.88 2.34C9.44922 2.34 9.1 2.68922 9.1 3.12C9.1 3.55078 9.44922 3.9 9.88 3.9Z" fill="white"/>
</svg>
