<svg width="34" height="34" viewBox="0 0 34 34" fill="none" xmlns="http://www.w3.org/2000/svg">
<path fill-rule="evenodd" clip-rule="evenodd" d="M1.35843 2.73143C0.608261 2.73143 0.0001297 3.34726 0.0001297 4.10692V12.3599C0.0001297 13.1196 0.608261 13.7354 1.35843 13.7354H9.50821C10.2584 13.7354 10.8665 13.1196 10.8665 12.3599C10.8665 11.6002 10.2584 10.9844 9.50821 10.9844H2.71672V4.10692C2.71672 3.34726 2.10859 2.73143 1.35843 2.73143Z" fill="black"/>
<path fill-rule="evenodd" clip-rule="evenodd" d="M15.0465 3.73585C17.6816 3.2042 20.4132 3.47594 22.8959 4.51669C25.3785 5.55744 27.5005 7.32045 28.9935 9.58268C30.4865 11.8449 31.2834 14.5047 31.2834 17.2257C31.2834 19.9467 30.4865 22.6065 28.9935 24.8687C27.5005 27.131 25.3785 28.894 22.8959 29.9347C20.4132 30.9755 17.6816 31.2472 15.0465 30.7156C12.4113 30.1839 9.99108 28.8728 8.09191 26.948C7.56168 26.4106 6.70165 26.4102 6.17099 26.9472C5.64033 27.4841 5.63997 28.355 6.1702 28.8924C8.44921 31.2022 11.3535 32.7755 14.5157 33.4135C17.6778 34.0515 20.9558 33.7254 23.9349 32.4765C26.9141 31.2276 29.4605 29.112 31.2521 26.3973C33.0437 23.6826 34 20.4908 34 17.2257C34 13.9606 33.0437 10.7688 31.2521 8.05408C29.4605 5.33939 26.9141 3.22379 23.9349 1.97489C20.9558 0.725986 17.6778 0.399899 14.5157 1.03788C11.3538 1.67579 8.44983 3.2489 6.17094 5.55824L0.39925 11.3858C-0.131977 11.9222 -0.133244 12.7931 0.396423 13.3311C0.926086 13.869 1.78611 13.8703 2.31734 13.3339L8.09191 7.50344C9.99108 5.57865 12.4113 4.2675 15.0465 3.73585Z" fill="black"/>
</svg>
