<svg width="14" height="14" viewBox="0 0 14 14" fill="none" xmlns="http://www.w3.org/2000/svg">
<path d="M10.0967 14C4.52949 14 0 9.47056 0 3.90342C0 1.93318 1.47384 0.259531 3.42727 0.00922028C3.92439 -0.0552857 4.40609 0.223773 4.59821 0.686533L6.00543 3.96932C6.15338 4.31008 6.12183 4.70343 5.92059 5.01825L4.74825 6.80128C5.26851 7.87334 6.14567 8.74908 7.21984 9.26512L8.97204 8.0914C9.28756 7.87754 9.68863 7.84038 10.0413 7.99464L13.3192 9.40255C13.7764 9.59256 14.0547 10.0743 13.9909 10.5714C13.7406 12.5248 12.067 13.9979 10.0974 13.9986L10.0967 14ZM3.5647 1.12265C2.17149 1.30355 1.12186 2.49831 1.12186 3.90342C1.12186 8.85214 5.14791 12.8782 10.0967 12.8782C11.5018 12.8782 12.6959 11.8278 12.8775 10.4353L9.59537 9.02603L7.84247 10.197C7.51783 10.4164 7.09363 10.4487 6.73674 10.2797C5.43118 9.65146 4.36752 8.59061 3.73718 7.28928L3.73578 7.28717C3.5689 6.938 3.59555 6.51871 3.80589 6.19338L4.97894 4.40895L3.5654 1.12335L3.5647 1.12265Z" fill="#161616"/>
</svg>
