<svg width="18" height="18" viewBox="0 0 18 18" fill="none" xmlns="http://www.w3.org/2000/svg">
<path fill-rule="evenodd" clip-rule="evenodd" d="M7.9616 1.38461C4.32924 1.38461 1.38463 4.3292 1.38463 7.96152C1.38463 11.5938 4.32924 14.5384 7.9616 14.5384C11.594 14.5384 14.5386 11.5938 14.5386 7.96152C14.5386 4.3292 11.594 1.38461 7.9616 1.38461ZM0 7.96152C0 3.5645 3.56453 0 7.9616 0C12.3587 0 15.9232 3.5645 15.9232 7.96152C15.9232 12.3586 12.3587 15.923 7.9616 15.923C3.56453 15.923 0 12.3586 0 7.96152Z" fill="#161616"/>
<path fill-rule="evenodd" clip-rule="evenodd" d="M12.6123 12.6124C12.8827 12.342 13.3211 12.342 13.5914 12.6124L17.7972 16.8182C18.0676 17.0885 18.0676 17.5269 17.7972 17.7972C17.5269 18.0676 17.0885 18.0676 16.8181 17.7972L12.6123 13.5915C12.342 13.3211 12.342 12.8828 12.6123 12.6124Z" fill="#161616"/>
</svg>
