<svg width="11" height="12" viewBox="0 0 11 12" fill="none" xmlns="http://www.w3.org/2000/svg">
<path fill-rule="evenodd" clip-rule="evenodd" d="M5.07692 0.45276C5.07692 0.202708 5.26634 0 5.5 0H7.61538C7.84904 0 8.03846 0.202708 8.03846 0.45276C8.03846 1.17324 8.30591 1.8642 8.78196 2.37366C9.25801 2.88311 9.90368 3.16932 10.5769 3.16932C10.8106 3.16932 11 3.37203 11 3.62208V5.88588C11 6.13581 10.8108 6.33846 10.5772 6.33864C9.68963 6.33931 8.81917 6.10995 8.03846 5.67553V7.6967C8.03879 8.51495 7.82102 9.31654 7.4107 10.007C7.00034 10.6975 6.41444 11.2484 5.72176 11.595C5.02908 11.9417 4.25837 12.0697 3.5001 11.964C2.74183 11.8583 2.02747 11.5233 1.44088 10.9983C0.854283 10.4734 0.419794 9.78023 0.188414 9.00027C-0.0429659 8.22031 -0.0616344 7.38589 0.1346 6.59498C0.330834 5.80406 0.733827 5.08946 1.29627 4.53506C1.85872 3.98066 2.55728 3.60947 3.30995 3.46506C3.43326 3.4414 3.56002 3.47744 3.6561 3.56346C3.75218 3.64949 3.80769 3.77665 3.80769 3.91071V6.26507C3.80769 6.43995 3.71358 6.59919 3.56593 6.67414C3.39492 6.76095 3.2488 6.89528 3.14284 7.06312C3.03687 7.23096 2.97493 7.42616 2.96348 7.62835C2.95203 7.83054 2.99148 8.03231 3.07774 8.21261C3.16399 8.39292 3.29387 8.54515 3.45384 8.65343C3.61381 8.76171 3.798 8.82206 3.98719 8.8282C4.17638 8.83434 4.36365 8.78603 4.52945 8.68832C4.69525 8.5906 4.83351 8.44707 4.92981 8.27268C5.0261 8.0983 5.07691 7.89947 5.07692 7.69692V0.45276ZM5.92308 0.90552V7.69692C5.92305 8.06153 5.83161 8.41948 5.65827 8.73337C5.48494 9.04727 5.23607 9.30563 4.93762 9.48151C4.63918 9.6574 4.3021 9.74435 3.96156 9.7333C3.62101 9.72226 3.28947 9.61362 3.00153 9.41872C2.71359 9.22382 2.4798 8.9498 2.32454 8.62525C2.16929 8.3007 2.09826 7.93751 2.11887 7.57357C2.13948 7.20963 2.25098 6.85827 2.44172 6.55616C2.58034 6.33661 2.75712 6.14891 2.96154 6.00275V4.49728C2.55846 4.64979 2.1866 4.88857 1.86953 5.20111C1.42549 5.63879 1.10734 6.20295 0.952417 6.82735C0.797495 7.45176 0.812234 8.11051 0.994902 8.72627C1.17757 9.34203 1.52059 9.88925 1.98369 10.3037C2.44679 10.7181 3.01076 10.9826 3.60939 11.066C4.20803 11.1495 4.81648 11.0484 5.36333 10.7748C5.91018 10.5011 6.37274 10.0662 6.69671 9.52105C7.02067 8.97591 7.1926 8.34318 7.19231 7.69714V4.86717C7.19231 4.69737 7.28109 4.54185 7.42225 4.46434C7.56342 4.38683 7.73325 4.40036 7.86214 4.49939C8.53823 5.01888 9.33002 5.33295 10.1538 5.41283V4.04645C9.41219 3.94647 8.71783 3.58562 8.18364 3.01396C7.64945 2.44229 7.31226 1.69921 7.21884 0.90552H5.92308Z" fill="white"/>
</svg>
