<svg width="18" height="18" viewBox="0 0 18 18" fill="none" xmlns="http://www.w3.org/2000/svg">
<path fill-rule="evenodd" clip-rule="evenodd" d="M8.99989 1.44C6.34895 1.44 4.19995 3.69648 4.19995 6.47998C4.19995 9.26349 6.34895 11.52 8.99989 11.52C11.6508 11.52 13.7998 9.26349 13.7998 6.47998C13.7998 3.69648 11.6508 1.44 8.99989 1.44ZM2.82854 6.47998C2.82854 2.90119 5.59154 0 8.99989 0C12.4082 0 15.1712 2.90119 15.1712 6.47998C15.1712 10.0588 12.4082 12.96 8.99989 12.96C5.59154 12.96 2.82854 10.0588 2.82854 6.47998Z" fill="black"/>
<path fill-rule="evenodd" clip-rule="evenodd" d="M9 12.9591C7.4351 12.9591 5.89777 13.3917 4.54256 14.2133C3.18735 15.035 2.06202 16.2167 1.27969 17.6398C1.09037 17.9842 0.671007 18.1022 0.343022 17.9035C0.0150366 17.7047 -0.097372 17.2643 0.0919501 16.9199C0.994635 15.2779 2.29309 13.9143 3.8568 12.9663C5.4205 12.0182 7.19434 11.5191 9 11.5191C10.8057 11.5191 12.5795 12.0182 14.1432 12.9663C15.7069 13.9143 17.0054 15.2779 17.9081 16.9199C18.0974 17.2643 17.985 17.7047 17.657 17.9035C17.329 18.1022 16.9096 17.9842 16.7203 17.6398C15.938 16.2167 14.8127 15.035 13.4574 14.2133C12.1022 13.3917 10.5649 12.9591 9 12.9591Z" fill="black"/>
</svg>
