<svg width="158" height="16" viewBox="0 0 158 16" fill="none" xmlns="http://www.w3.org/2000/svg">
<path d="M5.58448 16C4.46758 16 3.39365 15.8127 2.36266 15.4382C1.346 15.0637 0.558448 14.5693 0 13.9551L0.622884 12.6742C1.16701 13.2434 1.89013 13.7079 2.79224 14.0674C3.69435 14.412 4.6251 14.5843 5.58448 14.5843C6.93048 14.5843 7.93999 14.3296 8.61299 13.8202C9.28599 13.2959 9.62249 12.6217 9.62249 11.7978C9.62249 11.1685 9.43634 10.6667 9.06404 10.2921C8.70606 9.9176 8.26217 9.63296 7.73236 9.4382C7.20255 9.22847 6.46511 9.00375 5.52004 8.76404C4.38883 8.46442 3.48672 8.17978 2.81372 7.91011C2.14072 7.62547 1.56079 7.1985 1.07394 6.62921C0.601406 6.05992 0.365139 5.28839 0.365139 4.31461C0.365139 3.5206 0.565608 2.8015 0.966545 2.1573C1.36748 1.49813 1.98321 0.973783 2.81372 0.58427C3.64423 0.194757 4.67521 0 5.90666 0C6.76581 0 7.60349 0.127341 8.41968 0.382023C9.25019 0.621723 9.96615 0.958801 10.5676 1.39326L10.0306 2.7191C9.40054 2.28464 8.72754 1.96255 8.01158 1.75281C7.29562 1.52809 6.59398 1.41573 5.90666 1.41573C4.5893 1.41573 3.59411 1.68539 2.92111 2.22472C2.26243 2.74906 1.93309 3.43071 1.93309 4.26966C1.93309 4.89888 2.11208 5.40824 2.47006 5.79775C2.84236 6.17229 3.30057 6.46442 3.8447 6.67416C4.40315 6.86891 5.14775 7.08614 6.07849 7.32584C7.18107 7.61049 8.06886 7.89513 8.74186 8.17978C9.42918 8.44944 10.0091 8.86891 10.4816 9.4382C10.9542 9.99251 11.1904 10.7491 11.1904 11.7079C11.1904 12.5019 10.9828 13.2285 10.5676 13.8876C10.1666 14.5318 9.54373 15.0487 8.6989 15.4382C7.85407 15.8127 6.81593 16 5.58448 16Z" fill="white"/>
<path d="M14.6536 0.134831H16.243V15.8652H14.6536V0.134831Z" fill="white"/>
<path d="M21.1349 0.134831H22.7244V14.427H31.144V15.8652H21.1349V0.134831Z" fill="white"/>
<path d="M45.1511 0.134831L38.4926 15.8652H36.9247L30.2663 0.134831H31.9846L37.7409 13.7978L43.5402 0.134831H45.1511Z" fill="white"/>
<path d="M57.9652 14.427V15.8652H47.3332V0.134831H57.643V1.57303H48.9226V7.16854H56.6979V8.58427H48.9226V14.427H57.9652Z" fill="white"/>
<path d="M71.9681 15.8652L68.5315 10.809C68.1449 10.8539 67.744 10.8764 67.3287 10.8764H63.2907V15.8652H61.7013V0.134831H67.3287C69.2475 0.134831 70.751 0.614232 71.8393 1.57303C72.9275 2.53184 73.4716 3.85019 73.4716 5.52809C73.4716 6.75655 73.171 7.79775 72.5695 8.65168C71.9825 9.49064 71.1376 10.0974 70.035 10.4719L73.7079 15.8652H71.9681ZM67.2858 9.46067C68.775 9.46067 69.9133 9.1161 70.7009 8.42697C71.4884 7.73783 71.8822 6.77154 71.8822 5.52809C71.8822 4.25468 71.4884 3.2809 70.7009 2.60674C69.9133 1.9176 68.775 1.57303 67.2858 1.57303H63.2907V9.46067H67.2858Z" fill="white"/>
<path d="M85.7656 1.57303H80.4818V0.134831H92.6388V1.57303H87.355V15.8652H85.7656V1.57303Z" fill="white"/>
<path d="M101.541 16C100.052 16 98.6984 15.6554 97.4812 14.9663C96.2784 14.2622 95.3333 13.3034 94.646 12.0899C93.973 10.8764 93.6365 9.51311 93.6365 8C93.6365 6.48689 93.973 5.1236 94.646 3.91011C95.3333 2.69663 96.2784 1.74532 97.4812 1.05618C98.6984 0.35206 100.052 0 101.541 0C103.03 0 104.369 0.344569 105.557 1.03371C106.76 1.72285 107.705 2.68165 108.392 3.91011C109.08 5.1236 109.423 6.48689 109.423 8C109.423 9.51311 109.08 10.8839 108.392 12.1124C107.705 13.3258 106.76 14.2772 105.557 14.9663C104.369 15.6554 103.03 16 101.541 16ZM101.541 14.5169C102.729 14.5169 103.803 14.2397 104.763 13.6854C105.722 13.1161 106.474 12.3371 107.018 11.3483C107.562 10.3446 107.834 9.22846 107.834 8C107.834 6.77154 107.562 5.66292 107.018 4.67416C106.474 3.67041 105.722 2.89139 104.763 2.33708C103.803 1.76779 102.729 1.48315 101.541 1.48315C100.352 1.48315 99.2711 1.76779 98.2974 2.33708C97.338 2.89139 96.5791 3.67041 96.0207 4.67416C95.4765 5.66292 95.2045 6.77154 95.2045 8C95.2045 9.22846 95.4765 10.3446 96.0207 11.3483C96.5791 12.3371 97.338 13.1161 98.2974 13.6854C99.2711 14.2397 100.352 14.5169 101.541 14.5169Z" fill="white"/>
<path d="M119.043 16C117.096 16 115.578 15.4157 114.49 14.2472C113.401 13.0787 112.857 11.3783 112.857 9.14607V0.134831H114.447V9.07865C114.447 10.9064 114.84 12.2697 115.628 13.1685C116.415 14.0674 117.554 14.5169 119.043 14.5169C120.547 14.5169 121.692 14.0674 122.48 13.1685C123.267 12.2697 123.661 10.9064 123.661 9.07865V0.134831H125.207V9.14607C125.207 11.3783 124.663 13.0787 123.575 14.2472C122.501 15.4157 120.99 16 119.043 16Z" fill="white"/>
<path d="M136.527 16C135.037 16 133.691 15.6554 132.489 14.9663C131.3 14.2772 130.362 13.3258 129.675 12.1124C129.002 10.8839 128.665 9.51311 128.665 8C128.665 6.48689 129.002 5.1236 129.675 3.91011C130.362 2.68165 131.307 1.72285 132.51 1.03371C133.713 0.344569 135.059 0 136.548 0C137.665 0 138.696 0.194757 139.641 0.58427C140.586 0.973783 141.388 1.54307 142.047 2.29213L141.037 3.34831C139.863 2.10487 138.381 1.48315 136.591 1.48315C135.403 1.48315 134.321 1.76779 133.348 2.33708C132.374 2.90637 131.608 3.68539 131.05 4.67416C130.505 5.66292 130.233 6.77154 130.233 8C130.233 9.22846 130.505 10.3371 131.05 11.3258C131.608 12.3146 132.374 13.0936 133.348 13.6629C134.321 14.2322 135.403 14.5169 136.591 14.5169C138.395 14.5169 139.877 13.8876 141.037 12.6292L142.047 13.6854C141.388 14.4345 140.579 15.0112 139.62 15.4157C138.674 15.8052 137.644 16 136.527 16Z" fill="white"/>
<path d="M158 0.134831V15.8652H156.432V8.60674H147.024V15.8652H145.435V0.134831H147.024V7.14607H156.432V0.134831H158Z" fill="white"/>
</svg>
