<svg width="200" height="20" viewBox="0 0 200 20" fill="none" xmlns="http://www.w3.org/2000/svg">
<path d="M7.06896 20C5.65517 20 4.29575 19.7659 2.99071 19.2978C1.7038 18.8296 0.706896 18.2116 0 17.4438L0.788461 15.8427C1.47723 16.5543 2.39257 17.1348 3.53448 17.5843C4.67639 18.015 5.85455 18.2303 7.06896 18.2303C8.77276 18.2303 10.0506 17.912 10.9025 17.2753C11.7544 16.6199 12.1804 15.7772 12.1804 14.7472C12.1804 13.9607 11.9447 13.3333 11.4735 12.8652C11.0203 12.397 10.4584 12.0412 9.78779 11.7978C9.11715 11.5356 8.18368 11.2547 6.9874 10.9551C5.55548 10.5805 4.41357 10.2247 3.56167 9.88764C2.70977 9.53184 1.97568 8.99813 1.35942 8.28652C0.761273 7.57491 0.462201 6.61049 0.462201 5.39326C0.462201 4.40075 0.715959 3.50187 1.22347 2.69663C1.73099 1.87266 2.51039 1.21723 3.56167 0.730338C4.61295 0.243446 5.91799 0 7.47679 0C8.56432 0 9.62467 0.159176 10.6578 0.477529C11.7091 0.777154 12.6154 1.1985 13.3767 1.74157L12.6969 3.39888C11.8994 2.85581 11.0475 2.45318 10.1412 2.19101C9.23496 1.91011 8.34681 1.76966 7.47679 1.76966C5.80924 1.76966 4.54951 2.10674 3.69761 2.7809C2.86384 3.43633 2.44695 4.28839 2.44695 5.33708C2.44695 6.12359 2.67352 6.7603 3.12666 7.24719C3.59792 7.71536 4.17794 8.08052 4.86671 8.3427C5.57361 8.58614 6.51613 8.85768 7.69429 9.1573C9.08996 9.51311 10.2137 9.86891 11.0656 10.2247C11.9357 10.5618 12.6698 11.0861 13.2679 11.7978C13.866 12.4906 14.1651 13.4363 14.1651 14.6348C14.1651 15.6273 13.9023 16.5356 13.3767 17.3596C12.8691 18.1648 12.0807 18.8109 11.0113 19.2978C9.94186 19.7659 8.62776 20 7.06896 20Z" fill="#087065"/>
<path d="M18.5488 0.168539H20.5607V19.8315H18.5488V0.168539Z" fill="#087065"/>
<path d="M26.7531 0.168539H28.765V18.0337H39.4228V19.8315H26.7531V0.168539Z" fill="#087065"/>
<path d="M57.1532 0.168539L48.7249 19.8315H46.7401L38.3117 0.168539H40.4868L47.7733 17.2472L55.1141 0.168539H57.1532Z" fill="#087065"/>
<path d="M73.3736 18.0337V19.8315H59.9154V0.168539H72.9658V1.96629H61.9273V8.96067H71.7695V10.7303H61.9273V18.0337H73.3736Z" fill="#087065"/>
<path d="M91.0989 19.8315L86.7488 13.5112C86.2594 13.5674 85.7519 13.5955 85.2262 13.5955H80.1148V19.8315H78.1029V0.168539H85.2262C87.6551 0.168539 89.5582 0.76779 90.9358 1.96629C92.3133 3.16479 93.0021 4.81273 93.0021 6.91011C93.0021 8.44569 92.6215 9.74719 91.8602 10.8146C91.117 11.8633 90.0476 12.6217 88.652 13.0899L93.3012 19.8315H91.0989ZM85.1719 11.8258C87.0569 11.8258 88.4979 11.3951 89.4948 10.5337C90.4917 9.67228 90.9902 8.46442 90.9902 6.91011C90.9902 5.31835 90.4917 4.10112 89.4948 3.25843C88.4979 2.397 87.0569 1.96629 85.1719 1.96629H80.1148V11.8258H85.1719Z" fill="#087065"/>
<path d="M108.564 1.96629H101.876V0.168539H117.264V1.96629H110.576V19.8315H108.564V1.96629Z" fill="#087065"/>
<path d="M128.533 20C126.648 20 124.935 19.5693 123.394 18.7079C121.871 17.8277 120.675 16.6292 119.805 15.1124C118.953 13.5955 118.527 11.8914 118.527 10C118.527 8.10861 118.953 6.40449 119.805 4.88764C120.675 3.37079 121.871 2.18165 123.394 1.32022C124.935 0.440075 126.648 0 128.533 0C130.418 0 132.112 0.430712 133.617 1.29213C135.139 2.15356 136.336 3.35206 137.206 4.88764C138.076 6.40449 138.511 8.10861 138.511 10C138.511 11.8914 138.076 13.6049 137.206 15.1404C136.336 16.6573 135.139 17.8464 133.617 18.7079C132.112 19.5693 130.418 20 128.533 20ZM128.533 18.1461C130.037 18.1461 131.396 17.7996 132.611 17.1067C133.825 16.3951 134.777 15.4213 135.466 14.1854C136.154 12.9307 136.499 11.5356 136.499 10C136.499 8.46442 136.154 7.07865 135.466 5.8427C134.777 4.58802 133.825 3.61423 132.611 2.92135C131.396 2.20974 130.037 1.85393 128.533 1.85393C127.028 1.85393 125.66 2.20974 124.427 2.92135C123.213 3.61423 122.252 4.58802 121.545 5.8427C120.856 7.07865 120.512 8.46442 120.512 10C120.512 11.5356 120.856 12.9307 121.545 14.1854C122.252 15.4213 123.213 16.3951 124.427 17.1067C125.66 17.7996 127.028 18.1461 128.533 18.1461Z" fill="#087065"/>
<path d="M150.687 20C148.222 20 146.301 19.2697 144.923 17.809C143.546 16.3483 142.857 14.2228 142.857 11.4326V0.168539H144.869V11.3483C144.869 13.633 145.368 15.3371 146.364 16.4607C147.361 17.5843 148.802 18.1461 150.687 18.1461C152.591 18.1461 154.041 17.5843 155.038 16.4607C156.034 15.3371 156.533 13.633 156.533 11.3483V0.168539H158.49V11.4326C158.49 14.2228 157.802 16.3483 156.424 17.809C155.065 19.2697 153.153 20 150.687 20Z" fill="#087065"/>
<path d="M172.819 20C170.933 20 169.23 19.5693 167.707 18.7079C166.203 17.8464 165.015 16.6573 164.145 15.1404C163.294 13.6049 162.868 11.8914 162.868 10C162.868 8.10861 163.294 6.40449 164.145 4.88764C165.015 3.35206 166.212 2.15356 167.734 1.29213C169.257 0.430712 170.961 0 172.846 0C174.259 0 175.565 0.243446 176.761 0.730338C177.957 1.21723 178.972 1.92884 179.806 2.86517L178.528 4.18539C177.042 2.63109 175.166 1.85393 172.9 1.85393C171.396 1.85393 170.027 2.20974 168.795 2.92135C167.562 3.63296 166.592 4.60674 165.885 5.8427C165.197 7.07865 164.852 8.46442 164.852 10C164.852 11.5356 165.197 12.9213 165.885 14.1573C166.592 15.3933 167.562 16.367 168.795 17.0787C170.027 17.7903 171.396 18.1461 172.9 18.1461C175.184 18.1461 177.06 17.3596 178.528 15.7865L179.806 17.1067C178.972 18.0431 177.948 18.764 176.734 19.2697C175.537 19.7566 174.232 20 172.819 20Z" fill="#087065"/>
<path d="M200 0.168539V19.8315H198.015V10.7584H186.107V19.8315H184.095V0.168539H186.107V8.93258H198.015V0.168539H200Z" fill="#087065"/>
</svg>
