<svg width="1440" height="310" viewBox="0 0 1440 310" fill="none" xmlns="http://www.w3.org/2000/svg">
<g opacity="0.1">
<path d="M109.604 310C87.6834 310 66.6057 306.372 46.371 299.115C26.4174 291.859 10.9604 282.28 0 270.379L12.2251 245.562C22.9045 256.592 37.0968 265.59 54.8021 272.556C72.5074 279.232 90.7748 282.57 109.604 282.57C136.022 282.57 155.835 277.636 169.043 267.767C182.252 257.608 188.857 244.546 188.857 228.581C188.857 216.39 185.203 206.667 177.896 199.41C170.87 192.154 162.158 186.639 151.76 182.865C141.361 178.801 126.888 174.448 108.34 169.803C86.1377 163.998 68.4324 158.483 55.2237 153.258C42.015 147.743 30.633 139.471 21.0777 128.441C11.8035 117.411 7.16643 102.463 7.16643 83.5955C7.16643 68.2116 11.1009 54.279 18.97 41.7978C26.839 29.0262 38.9236 18.867 55.2237 11.3202C71.5238 3.77341 91.7584 0 115.928 0C132.79 0 149.23 2.46723 165.249 7.40169C181.55 12.0459 195.601 18.5768 207.405 26.9944L196.866 52.6826C184.501 44.265 171.292 38.0243 157.24 33.9607C143.188 29.6068 129.417 27.4298 115.928 27.4298C90.0722 27.4298 70.5402 32.6545 57.3315 43.1039C44.4038 53.2631 37.9399 66.47 37.9399 82.7247C37.9399 94.9157 41.4529 104.785 48.4788 112.331C55.7858 119.588 64.7789 125.248 75.4583 129.312C86.4187 133.085 101.033 137.294 119.3 141.938C140.94 147.453 158.364 152.968 171.573 158.483C185.063 163.708 196.445 171.835 205.719 182.865C214.993 193.605 219.63 208.263 219.63 226.84C219.63 242.224 215.555 256.301 207.405 269.073C199.536 281.554 187.311 291.568 170.73 299.115C154.149 306.372 133.773 310 109.604 310Z" fill="#087065"/>
<path d="M287.599 2.61235H318.794V307.388H287.599V2.61235Z" fill="#087065"/>
<path d="M414.807 2.61235H446.002V279.522H611.251V307.388H414.807V2.61235Z" fill="#087065"/>
<path d="M886.161 2.61235L755.479 307.388H724.705L594.023 2.61235H627.748L740.724 267.331L854.544 2.61235H886.161Z" fill="#087065"/>
<path d="M1137.66 279.522V307.388H928.988V2.61235H1131.33V30.4775H960.183V138.89H1112.79V166.32H960.183V279.522H1137.66Z" fill="#087065"/>
<path d="M1412.49 307.388L1345.04 209.424C1337.45 210.295 1329.58 210.73 1321.43 210.73H1242.18V307.388H1210.99V2.61235H1321.43C1359.09 2.61235 1388.6 11.9007 1409.96 30.4775C1431.32 49.0543 1442 74.5974 1442 107.107C1442 130.908 1436.1 151.081 1424.29 167.626C1412.77 183.881 1396.19 195.637 1374.55 202.893L1446.63 307.388H1412.49ZM1320.59 183.301C1349.82 183.301 1372.16 176.625 1387.62 163.272C1403.07 149.92 1410.8 131.199 1410.8 107.107C1410.8 82.4345 1403.07 63.5674 1387.62 50.5056C1372.16 37.1536 1349.82 30.4775 1320.59 30.4775H1242.18V183.301H1320.59Z" fill="#087065"/>
</g>
</svg>
