<svg width="226" height="228" viewBox="0 0 226 228" fill="none" xmlns="http://www.w3.org/2000/svg">
<path d="M199.72 123.689C199.935 121.764 200.448 119.947 201.261 118.24C202.07 116.557 203.032 115.291 204.146 114.442L206.126 115.752C205.088 116.585 204.188 117.745 203.425 119.233C202.686 120.725 202.225 122.297 202.04 123.95C201.781 126.27 202.004 128.057 202.71 129.311C203.439 130.568 204.48 131.273 205.83 131.425C206.861 131.542 207.72 131.314 208.405 130.741C209.088 130.194 209.64 129.481 210.061 128.604C210.507 127.73 211.017 126.5 211.592 124.916C212.301 123.021 212.941 121.519 213.513 120.409C214.109 119.302 214.92 118.381 215.947 117.647C216.971 116.938 218.281 116.674 219.877 116.854C221.179 117.001 222.319 117.479 223.297 118.289C224.301 119.102 225.041 120.26 225.52 121.764C225.999 123.267 226.119 125.08 225.882 127.203C225.717 128.683 225.347 130.104 224.772 131.463C224.22 132.85 223.529 134.022 222.701 134.978L220.632 133.808C221.465 132.802 222.123 131.702 222.604 130.506C223.11 129.314 223.43 128.125 223.562 126.941C223.815 124.67 223.565 122.905 222.811 121.646C222.078 120.413 221.024 119.72 219.649 119.565C218.618 119.448 217.748 119.662 217.041 120.207C216.356 120.78 215.789 121.516 215.34 122.415C214.913 123.341 214.414 124.584 213.842 126.144C213.163 127.992 212.526 129.469 211.93 130.577C211.355 131.711 210.556 132.633 209.532 133.342C208.533 134.054 207.247 134.322 205.676 134.144C204.374 133.998 203.223 133.505 202.223 132.668C201.244 131.858 200.517 130.688 200.041 129.16C199.59 127.635 199.483 125.811 199.72 123.689Z" fill="#087065" fill-opacity="0.3"/>
<path d="M222.435 143.997L221.668 146.643L196.759 139.347L197.527 136.7L222.435 143.997Z" fill="#087065" fill-opacity="0.3"/>
<path d="M217.895 157.901L216.678 160.371L195.553 149.86L189.107 162.946L186.981 161.889L194.644 146.331L217.895 157.901Z" fill="#087065" fill-opacity="0.3"/>
<path d="M191.45 197.157L179.054 171.504L180.801 169.427L208.032 177.442L206.118 179.718L182.496 172.721L193.245 195.024L191.45 197.157Z" fill="#087065" fill-opacity="0.3"/>
<path d="M156.538 193.396L155.185 191.438L170.254 180.92L185.052 202.339L170.439 212.538L169.086 210.579L181.446 201.953L176.183 194.334L165.162 202.025L163.83 200.098L174.851 192.406L169.354 184.451L156.538 193.396Z" fill="#087065" fill-opacity="0.3"/>
<path d="M134.561 199.4L142.911 205.344C143.516 205.052 144.157 204.787 144.834 204.55L151.411 202.238L148.695 194.431L151.284 193.521L159.848 218.136L150.682 221.358C147.557 222.456 144.847 222.567 142.552 221.69C140.257 220.813 138.653 219.061 137.74 216.436C137.071 214.513 136.994 212.712 137.508 211.031C138.008 209.382 139.054 207.949 140.646 206.732L131.727 200.396L134.561 199.4ZM145.674 206.74C143.249 207.593 141.582 208.784 140.675 210.313C139.767 211.842 139.652 213.58 140.329 215.526C141.022 217.518 142.194 218.817 143.843 219.421C145.501 220.048 147.543 219.935 149.969 219.083L156.476 216.795L152.182 204.453L145.674 206.74Z" fill="#087065" fill-opacity="0.3"/>
<path d="M112.645 225.404L121.76 225.617L121.705 228L100.732 227.512L100.787 225.128L109.903 225.34L110.448 201.655L113.19 201.718L112.645 225.404Z" fill="#087065" fill-opacity="0.3"/>
<path d="M88.1547 197.826C90.6162 198.568 92.6898 199.789 94.3754 201.489C96.0303 203.206 97.1385 205.199 97.7001 207.468C98.238 209.73 98.1488 212.062 97.4324 214.465C96.716 216.868 95.5143 218.865 93.8274 220.457C92.1167 222.042 90.1042 223.082 87.7897 223.577C85.4445 224.09 83.0411 223.975 80.5795 223.234C78.1179 222.492 76.068 221.278 74.4297 219.592C72.7678 217.899 71.6596 215.906 71.1051 213.613C70.5435 211.344 70.6209 209.008 71.3373 206.606C72.0536 204.203 73.2707 202.197 74.9884 200.589C76.6991 199.004 78.7116 197.964 81.0261 197.468C83.3169 196.966 85.6931 197.085 88.1547 197.826ZM87.4525 200.182C85.4879 199.59 83.5815 199.495 81.7333 199.898C79.8779 200.324 78.2665 201.187 76.8989 202.486C75.5243 203.809 74.5461 205.446 73.9645 207.397C73.3829 209.348 73.3077 211.243 73.739 213.084C74.1632 214.949 75.037 216.561 76.3604 217.918C77.6767 219.3 79.3171 220.287 81.2817 220.878C83.2462 221.47 85.168 221.556 87.047 221.137C88.8953 220.735 90.5186 219.875 91.9169 218.559C93.2844 217.26 94.259 215.635 94.8406 213.685C95.4222 211.734 95.501 209.826 95.0768 207.961C94.6218 206.113 93.7362 204.498 92.4199 203.117C91.0728 201.752 89.417 200.773 87.4525 200.182Z" fill="#087065" fill-opacity="0.3"/>
<path d="M64.3357 186.472C67.1168 188.368 68.7435 190.647 69.2158 193.31C69.688 195.972 68.8909 198.835 66.8243 201.897L58.4817 214.26L56.2118 212.712L64.4921 200.442C66.1842 197.935 66.8839 195.681 66.5914 193.681C66.2989 191.681 65.0893 189.956 62.9626 188.507C60.8155 187.043 58.7634 186.544 56.8066 187.011C54.8497 187.477 53.0252 188.964 51.3331 191.472L43.0529 203.742L40.8444 202.236L49.187 189.874C51.2536 186.811 53.6049 185.008 56.2408 184.465C58.8563 183.907 61.5546 184.576 64.3357 186.472Z" fill="#087065" fill-opacity="0.3"/>
<path d="M44.8108 168.295C46.4411 170.292 47.4753 172.459 47.9134 174.796C48.3358 177.114 48.1497 179.372 47.355 181.57C46.5255 183.764 45.1463 185.657 43.2171 187.248C41.288 188.839 39.1815 189.822 36.8977 190.196C34.5791 190.566 32.3221 190.307 30.1267 189.419C27.9314 188.532 26.0186 187.089 24.3884 185.093C23.1657 183.596 22.2854 182.009 21.7474 180.332C21.2094 178.655 21.0574 176.982 21.2913 175.311L23.743 175.553C23.4431 178.435 24.2728 181.076 26.2323 183.476C27.5333 185.069 29.0797 186.219 30.8714 186.926C32.6632 187.632 34.495 187.84 36.367 187.549C38.2232 187.239 39.9345 186.438 41.5007 185.146C43.0669 183.854 44.1825 182.323 44.8474 180.554C45.4967 178.765 45.6513 176.919 45.3111 175.015C44.971 173.111 44.1504 171.362 42.8494 169.769C40.8743 167.35 38.4497 166.025 35.5756 165.793L35.817 163.329C37.4931 163.424 39.1141 163.902 40.6801 164.763C42.2112 165.621 43.5882 166.798 44.8108 168.295Z" fill="#087065" fill-opacity="0.3"/>
<path d="M4.52642 148.054L28.4962 138.076L29.5315 140.588L18.4712 145.193L24.6832 160.267L35.7435 155.663L36.7931 158.21L12.8233 168.188L11.7738 165.641L22.4574 161.194L16.2454 146.119L5.56175 150.567L4.52642 148.054Z" fill="#087065" fill-opacity="0.3"/>
<path d="M26.312 106.121C26.1413 108.051 25.6694 109.878 24.8966 111.604C24.1259 113.306 23.1933 114.594 22.0988 115.468L20.0897 114.204C21.1082 113.348 21.9817 112.167 22.7102 110.661C23.4142 109.153 23.8395 107.571 23.9862 105.913C24.1919 103.588 23.9278 101.807 23.1939 100.569C22.4354 99.3296 21.3793 98.6492 20.0256 98.5283C18.9919 98.4359 18.139 98.6837 17.4668 99.2719C16.7967 99.8353 16.2613 100.56 15.8603 101.447C15.4348 102.332 14.9529 103.572 14.4146 105.17C13.7495 107.08 13.1439 108.597 12.5981 109.72C12.0276 110.841 11.2375 111.78 10.2278 112.537C9.22033 113.27 7.91671 113.565 6.31694 113.422C5.01251 113.305 3.86179 112.853 2.86476 112.066C1.84313 111.277 1.07583 110.136 0.562878 108.644C0.0499214 107.152 -0.112438 105.342 0.0757994 103.215C0.207128 101.731 0.544374 100.302 1.08754 98.9298C1.60828 97.5303 2.27148 96.3429 3.07716 95.3678L5.17322 96.4901C4.36317 97.5147 3.73114 98.6301 3.27714 99.8361C2.79852 101.04 2.50668 102.236 2.40162 103.423C2.20025 105.699 2.49114 107.458 3.27429 108.699C4.03502 109.914 5.10451 110.583 6.48278 110.707C7.51647 110.799 8.38063 110.565 9.07526 110.003C9.74747 109.415 10.2974 108.666 10.7252 107.757C11.1305 106.821 11.6012 105.567 12.1372 103.994C12.7734 102.131 13.3767 100.639 13.9472 99.5183C14.4953 98.3705 15.2731 97.4303 16.2806 96.6975C17.2634 95.9626 18.5425 95.6656 20.1176 95.8064C21.422 95.923 22.584 96.3883 23.6034 97.2025C24.6004 97.9897 25.3543 99.1417 25.8651 100.658C26.3513 102.173 26.5002 103.994 26.312 106.121Z" fill="#087065" fill-opacity="0.3"/>
<path d="M3.23001 85.9395L3.94739 83.2789L28.9886 90.0994L28.2712 92.76L3.23001 85.9395Z" fill="#087065" fill-opacity="0.3"/>
<path d="M7.30265 72.4075L8.46444 69.9104L29.8175 79.9463L35.9719 66.7184L38.1206 67.7283L30.8045 83.4533L7.30265 72.4075Z" fill="#087065" fill-opacity="0.3"/>
<path d="M33.1537 32.2229L46.012 57.6455L44.3032 59.7539L16.9316 52.2379L18.8043 49.9274L42.549 56.4919L31.3981 34.389L33.1537 32.2229Z" fill="#087065" fill-opacity="0.3"/>
<path d="M67.8566 35.4362L69.252 37.3642L54.4156 48.2113L39.1538 27.1239L53.5406 16.6055L54.936 18.5335L42.7671 27.4303L48.196 34.9314L59.046 26.9988L60.4196 28.8966L49.5695 36.8293L55.2382 44.6617L67.8566 35.4362Z" fill="#087065" fill-opacity="0.3"/>
<path d="M89.6171 28.9319L81.1353 23.1784C80.5367 23.4837 79.902 23.7629 79.2311 24.0159L72.7073 26.4762L75.5979 34.219L73.03 35.1874L63.9155 10.7732L73.0072 7.34446C76.1072 6.17537 78.814 6.00335 81.1277 6.82838C83.4415 7.65342 85.0844 9.36803 86.0567 11.9722C86.7684 13.8788 86.8859 15.6781 86.4091 17.3698C85.9467 19.0296 84.9333 20.4861 83.369 21.7391L92.4279 27.8719L89.6171 28.9319ZM78.3414 21.8448C80.7473 20.9374 82.3868 19.709 83.2599 18.1596C84.1329 16.6102 84.2092 14.8705 83.4888 12.9406C82.7509 10.9643 81.5505 9.69282 79.8875 9.12635C78.2159 8.53662 76.1771 8.69544 73.7711 9.60279L67.3167 12.0369L71.887 24.2789L78.3414 21.8448Z" fill="#087065" fill-opacity="0.3"/>
<path d="M110.593 2.38412H101.475V0H122.453V2.38412H113.336V26.0763H110.593V2.38412Z" fill="#087065" fill-opacity="0.3"/>
<path d="M135.64 29.2472C133.162 28.5622 131.062 27.389 129.338 25.7277C127.645 24.049 126.492 22.0818 125.879 19.8261C125.29 17.5769 125.327 15.2431 125.989 12.8247C126.651 10.4062 127.807 8.38196 129.457 6.75197C131.132 5.12857 133.12 4.04276 135.423 3.49455C137.756 2.92899 140.161 2.98871 142.639 3.67371C145.117 4.35872 147.194 5.52531 148.869 7.17347C150.569 8.82823 151.722 10.7954 152.328 13.0751C152.941 15.3308 152.917 17.6679 152.255 20.0864C151.593 22.5048 150.421 24.5377 148.74 26.1851C147.066 27.8085 145.078 28.8943 142.775 29.4425C140.496 29.9973 138.118 29.9322 135.64 29.2472ZM136.289 26.8766C138.266 27.4233 140.174 27.4743 142.013 27.0296C143.858 26.561 145.45 25.6617 146.788 24.3316C148.132 22.9775 149.073 21.3188 149.61 19.3553C150.148 17.3918 150.18 15.4947 149.707 13.664C149.241 11.8094 148.331 10.2184 146.977 8.89115C145.63 7.53993 143.968 6.59098 141.99 6.04429C140.013 5.4976 138.09 5.45527 136.221 5.9173C134.382 6.36198 132.778 7.25804 131.41 8.60549C130.072 9.93558 129.135 11.5824 128.597 13.5459C128.06 15.5094 128.024 17.4185 128.491 19.2731C128.987 21.1103 129.909 22.7046 131.256 24.0558C132.634 25.3897 134.311 26.3299 136.289 26.8766Z" fill="#087065" fill-opacity="0.3"/>
<path d="M160.342 40.2618C157.527 38.4174 155.859 36.1685 155.338 33.5151C154.817 30.8616 155.562 27.9849 157.573 24.885L165.689 12.3708L167.986 13.8762L159.931 26.2967C158.285 28.8349 157.626 31.1011 157.955 33.0952C158.284 35.0894 159.525 36.7917 161.678 38.2021C163.851 39.626 165.912 40.0868 167.86 39.5844C169.808 39.082 171.605 37.5617 173.251 35.0235L181.306 22.6029L183.542 24.0675L175.426 36.5817C173.416 39.6816 171.098 41.5277 168.472 42.1198C165.867 42.7255 163.157 42.1061 160.342 40.2618Z" fill="#087065" fill-opacity="0.3"/>
<path d="M180.107 57.8522C178.434 55.892 177.353 53.7483 176.864 51.4211C176.392 49.1129 176.529 46.8515 177.275 44.6369C178.057 42.425 179.395 40.5025 181.289 38.8693C183.183 37.2361 185.268 36.2075 187.543 35.7836C189.853 35.3623 192.115 35.5714 194.329 36.4109C196.543 37.2503 198.487 38.6502 200.16 40.6105C201.415 42.0807 202.329 43.648 202.904 45.3124C203.478 46.9769 203.666 48.6469 203.469 50.3224L201.012 50.1336C201.25 47.2459 200.363 44.624 198.352 42.2679C197.016 40.7034 195.445 39.5876 193.639 38.9204C191.832 38.2531 189.996 38.0856 188.131 38.4178C186.282 38.7688 184.588 39.6072 183.051 40.9332C181.513 42.2592 180.431 43.8139 179.804 45.5974C179.194 47.3998 179.08 49.2491 179.461 51.1452C179.842 53.0414 180.701 54.7717 182.036 56.3362C184.063 58.7111 186.516 59.9828 189.395 60.1512L189.207 62.6201C187.529 62.5615 185.898 62.1192 184.314 61.2929C182.764 60.4693 181.362 59.3224 180.107 57.8522Z" fill="#087065" fill-opacity="0.3"/>
<path d="M220.838 77.0965L197.096 87.6119L196.005 85.1235L206.96 80.2714L200.414 65.3405L189.459 70.1926L188.353 67.67L212.094 57.1546L213.2 59.6772L202.618 64.3641L209.165 79.2949L219.747 74.6081L220.838 77.0965Z" fill="#087065" fill-opacity="0.3"/>
</svg>
