<svg width="1522" height="310" viewBox="0 0 1522 310" fill="none" xmlns="http://www.w3.org/2000/svg">
<g opacity="0.1">
<path d="M103.703 30.4775H0V2.61235H238.6V30.4775H134.898V307.388H103.703V30.4775Z" fill="#087065"/>
<path d="M413.315 310C384.087 310 357.529 303.324 333.641 289.972C310.034 276.33 291.485 257.753 277.996 234.242C264.787 210.73 258.183 184.316 258.183 155C258.183 125.684 264.787 99.2697 277.996 75.7584C291.485 52.2472 310.034 33.8155 333.641 20.4635C357.529 6.82116 384.087 0 413.315 0C442.543 0 468.819 6.67603 492.145 20.0281C515.752 33.3802 534.301 51.9569 547.791 75.7584C561.28 99.2697 568.025 125.684 568.025 155C568.025 184.316 561.28 210.875 547.791 234.677C534.301 258.188 515.752 276.62 492.145 289.972C468.819 303.324 442.543 310 413.315 310ZM413.315 281.264C436.641 281.264 457.719 275.894 476.548 265.155C495.377 254.125 510.132 239.031 520.811 219.874C531.491 200.426 536.83 178.802 536.83 155C536.83 131.199 531.491 109.719 520.811 90.5618C510.132 71.1142 495.377 56.0206 476.548 45.2809C457.719 34.2509 436.641 28.7359 413.315 28.7359C389.989 28.7359 368.771 34.2509 349.66 45.2809C330.831 56.0206 315.936 71.1142 304.975 90.5618C294.296 109.719 288.956 131.199 288.956 155C288.956 178.802 294.296 200.426 304.975 219.874C315.936 239.031 330.831 254.125 349.66 265.155C368.771 275.894 389.989 281.264 413.315 281.264Z" fill="#087065"/>
<path d="M756.826 310C718.605 310 688.815 298.68 667.456 276.039C646.098 253.399 635.418 220.454 635.418 177.205V2.61235H666.613V175.899C666.613 211.311 674.342 237.725 689.799 255.14C705.256 272.556 727.598 281.264 756.826 281.264C786.335 281.264 808.818 272.556 824.275 255.14C839.732 237.725 847.46 211.311 847.46 175.899V2.61235H877.812V177.205C877.812 220.454 867.133 253.399 845.774 276.039C824.696 298.68 795.047 310 756.826 310Z" fill="#087065"/>
<path d="M1099.97 310C1070.74 310 1044.32 303.324 1020.72 289.972C997.39 276.62 978.982 258.188 965.492 234.677C952.284 210.875 945.679 184.316 945.679 155C945.679 125.684 952.284 99.2697 965.492 75.7584C978.982 51.9569 997.531 33.3802 1021.14 20.0281C1044.74 6.67603 1071.16 0 1100.39 0C1122.31 0 1142.55 3.77341 1161.09 11.3202C1179.64 18.867 1195.38 29.897 1208.31 44.4101L1188.49 64.8736C1165.45 40.7818 1136.36 28.7359 1101.23 28.7359C1077.91 28.7359 1056.69 34.2509 1037.58 45.2809C1018.47 56.3109 1003.43 71.4045 992.472 90.5618C981.792 109.719 976.453 131.199 976.453 155C976.453 178.802 981.792 200.281 992.472 219.438C1003.43 238.596 1018.47 253.689 1037.58 264.719C1056.69 275.749 1077.91 281.264 1101.23 281.264C1136.64 281.264 1165.73 269.073 1188.49 244.691L1208.31 265.155C1195.38 279.668 1179.5 290.843 1160.67 298.68C1142.12 306.227 1121.89 310 1099.97 310Z" fill="#087065"/>
<path d="M1521.42 2.61235V307.388H1490.64V166.756H1306V307.388H1274.81V2.61235H1306V138.455H1490.64V2.61235H1521.42Z" fill="#087065"/>
</g>
</svg>
